<svg width="258" height="237" viewBox="0 0 258 237" fill="none" xmlns="http://www.w3.org/2000/svg">
<path d="M0 162.5L22.5 76.5H96L118.5 0.5H204L184.076 76.5H258L236.5 162.5H161.531L142 237H56.5L74.5 162.5H0Z" fill="#FF0000"/>
<path d="M77.5 37.5H75.2531L74.6211 39.6562L49.1211 126.656L47.9945 130.5H52H77.5H79.6623L80.3461 128.449L94.2864 86.6277L102.926 129.434L83.0875 209.781L82.1432 213.605L86.0811 213.499C93.1921 213.307 109.397 208.305 121.941 190.744C129.894 179.61 140.617 164.217 149.184 151.841L140.126 182.141L140.066 182.339L140.035 182.544C139.644 185.087 139.692 189.001 141.349 192.43C142.2 194.193 143.503 195.875 145.422 197.104C147.348 198.338 149.714 199 152.5 199C159.583 199 166.108 194.01 171.633 188.422C175.8 184.208 179.864 179.146 183.568 174.533C184.864 172.919 186.116 171.359 187.313 169.911C189.682 167.043 191.918 164.295 193.942 161.782L188.12 182.16C188.119 182.162 188.119 182.164 188.118 182.167C187.433 184.518 186.991 188.259 188.325 191.61C189.022 193.359 190.216 195.019 192.09 196.216C193.949 197.403 196.266 198 199 198H232.5H237.159L235.231 193.759L230.231 182.759L229.432 181H227.5H220.047L234.37 133.872L234.47 133.543L234.493 133.2C234.683 130.359 234.314 126.043 232.37 122.41C231.375 120.549 229.918 118.782 227.834 117.559C225.729 116.324 223.189 115.766 220.251 116.01C213.415 116.58 208.687 119.474 204.834 123.052C202.949 124.802 201.259 126.729 199.668 128.569C199.521 128.739 199.376 128.907 199.231 129.075C197.772 130.766 196.384 132.373 194.879 133.879C191.822 136.936 187.458 141.496 183.411 145.776L191.879 116.843L191.959 116.571L191.986 116.289C192.271 113.342 191.969 108.854 189.844 105.127C188.751 103.21 187.145 101.446 184.865 100.283C182.584 99.1182 179.845 98.6654 176.669 99.0183C169.024 99.8678 163.061 103.704 157.844 108.789C153.562 112.962 149.595 118.176 145.555 123.485C144.748 124.546 143.938 125.61 143.122 126.671C139.563 131.298 135.808 136.292 132.424 140.839L163.386 31.8196L164.471 28H160.5H134H131.728L131.112 30.1871L115.57 85.4039L106.947 39.941L106.485 37.5H104H77.5Z" fill="#029834" stroke="white" stroke-width="6"/>
</svg>
